<svg xmlns="http://www.w3.org/2000/svg" xmlns:xlink="http://www.w3.org/1999/xlink" width="400" height="400" viewBox="0 0 400 400">
  <defs>
    <clipPath id="clip-Custom_Size_1">
      <rect width="400" height="400"/>
    </clipPath>
  </defs>
  <g id="Custom_Size_1" data-name="Custom Size – 1" clip-path="url(#clip-Custom_Size_1)">
    <rect width="400" height="400" fill="rgba(255,255,255,0)"/>
    <path id="file_type_typescript_icon_130108" d="M337.544,10.462A70.953,70.953,0,0,1,373.2,31.007a93.87,93.87,0,0,1,13.665,18.332c.176.722-24.6,17.369-39.63,26.655-.545.369-2.71-1.989-5.164-5.613a32.3,32.3,0,0,0-26.784-16.038c-17.273-1.187-28.4,7.859-28.323,22.983a20.849,20.849,0,0,0,2.454,10.681c3.8,7.859,10.858,12.574,33.023,22.181,40.8,17.562,58.315,29.141,69.124,45.6a82.725,82.725,0,0,1,6.672,69.493,76.406,76.406,0,0,1-63.062,45.147,174.815,174.815,0,0,1-43.431-.449,104.745,104.745,0,0,1-57.994-30.216,100.691,100.691,0,0,1-14.851-21.988,42.583,42.583,0,0,1,5.244-3.336c2.534-1.443,12.125-6.961,21.17-12.2l16.423-9.623,3.432,5a76.518,76.518,0,0,0,21.652,20.721,52.926,52.926,0,0,0,55.46-2.807,24.779,24.779,0,0,0,3.208-31.659c-4.427-6.335-13.472-11.66-39.181-22.806A141.136,141.136,0,0,1,252.59,128.1a75.171,75.171,0,0,1-15.653-28.5,114.127,114.127,0,0,1-.994-36.375A69.477,69.477,0,0,1,294.386,9.115a144.345,144.345,0,0,1,43.159,1.347ZM203.738,34.247l.176,23.319H129.658v210.87H77.293V57.614H3.037v-22.9A224.294,224.294,0,0,1,3.678,11.2c.273-.369,45.42-.545,100.158-.449l99.613.273Z" transform="translate(-2.966 60.171)" fill="#fff"/>
  </g>
</svg>
