<svg xmlns="http://www.w3.org/2000/svg" width="512" height="512"><title>background</title><rect fill="none" height="402" width="582" y="-1" x="-1"/><title>Layer 1</title><path d="m119.4 21.3l21.3 0 0 21 19.5 0 0-21 21.3 0 0 63.7 -21.3 0 0-21.3 -19.5 0 0 21.3 -21.3 0 0-63.7zM209.5 42.4l-18.8 0 0-21.1 58.8 0 0 21.1 -18.8 0 0 42.6 -21.3 0 0-42.6 0 0zM258.9 21.3l22.2 0 13.7 22.4 13.6-22.4 22.2 0 0 63.7 -21.2 0 0-31.6 -14.7 22.7 -0.4 0 -14.7-22.7 0 31.6 -20.8 0 0-63.7zM341.2 21.3l21.3 0 0 42.7 30 0 0 21.1 -51.3 0 0-63.7z" fill="#ffffff"/><path d="m200.7 267.7l55.3 0 0-42.9 -59.2 0 3.8 42.9zm-112-154.7l30.5 341.7 136.8 38 136.9-37.9 30.5-341.8 -334.6 0zm278 320l-110.7 30.7 0-43.5 -0.1 0 -85.9-23.8 -6-67.3 42.1 0 3.1 34.9 46.7 12.6 0.1 0 0-67 -93.7 0 -11.3-126.7 105 0 0-41.9 136.8 0 -26.1 292.1zM307.6 309.6l-51.6 0 0 67 46.7-12.6 4.9-54.4zm-51.6-168.7l0 41.9 105 0 -3.8 41.9 -101.2 0 0 42.9 97.4 0 -11.5 128.7 -85.9 23.8 0 43.5 110.7-30.7 26.1-292.1 -136.8 0 0 0z" fill="#ffffff"/><g opacity="0.2"><polygon points="256 182.8 151 182.8 162.3 309.6 256 309.6 256 267.7 200.7 267.7 196.8 224.8 256 224.8 " fill="#231F20"/><polygon points="256 376.6 255.9 376.6 209.3 364 206.1 329.1 164.1 329.1 170.1 396.4 255.9 420.2 256 420.2 " fill="#231F20"/></g></svg>