<?xml version="1.0" encoding="utf-8"?>
<!-- Generator: Adobe Illustrator 19.2.1, SVG Export Plug-In . SVG Version: 6.00 Build 0)  -->
<svg version="1.1" id="Layer_1" xmlns="http://www.w3.org/2000/svg" xmlns:xlink="http://www.w3.org/1999/xlink" x="0px" y="0px"
	 viewBox="0 0 435.52304 112.09148" style="enable-background:new 0 0 435.52304 112.09148;" xml:space="preserve">
<style type="text/css">
	*{fill:#fff;}
</style>
<g id="g3000" transform="matrix(0.04824549,0,0,0.04824549,0,38079.698)">
	<g>
		<path class="st0" d="M3203.86353-788862.875h123.86938v565.125h664.07056v-565.125h123.86938v1303.3125h-123.86938v-616.625
			h-664.07056v616.625h-123.86938V-788862.875z"/>
		<path class="st0" d="M4655.854-787693.9375h3.44092l249.45898-727.125h127.30029l-400.84717,1084.25
			c-24.0874,66.25-54.77393,119.3125-92.03906,159.25c-37.28516,39.875-90.90576,59.8125-160.86084,59.8125
			c-35.56494,0-70.52246-3.6875-104.93311-11.0625l12.04346-114.125c27.52881,9.8125,56.1709,14.75,86.00732,14.75
			c40.13916,0,71.67578-13.25,94.62988-39.625c22.93408-26.375,43.01367-64.125,60.21924-113.1875l65.36084-180.375
			l-344.06934-859.6875h130.7417L4655.854-787693.9375z"/>
		<path class="st0" d="M5282.07227-787117.75H5165.0752v-1303.3125h116.99707v149.125h5.16162
			c33.23682-56.4375,77.68799-99.125,133.33252-127.9375c55.604-28.8125,112.07861-43.25,169.44336-43.25
			c63.07324,0,120.13477,11.6875,171.18457,34.9375c51.0293,23.3125,94.62988,55.25,130.74121,95.75
			c36.13135,40.5,64.22705,88.375,84.30664,143.5625c20.05957,55.25,30.09961,114.75,30.09961,178.5625
			s-10.04004,123.375-30.09961,178.5625c-20.07959,55.25-48.17529,103.125-84.30664,143.5625
			c-36.11133,40.5-79.71191,72.4375-130.74121,95.75c-51.0498,23.3125-108.11133,35-171.18457,35
			c-57.36475,0-113.83936-14.4375-169.44336-43.3125c-55.64453-28.8125-100.0957-70.1875-133.33252-124.25h-5.16162V-787117.75z
			 M5882.48291-787990.3125c0-47.875-6.88232-92.9375-20.64697-135.25c-13.76416-42.375-33.54053-79.1875-59.34863-110.5
			s-57.62793-56.125-95.47998-74.5625c-37.85205-18.375-80.86572-27.5625-129.0415-27.5625
			c-44.71387,0-86.00684,8.875-123.85889,26.625c-37.85205,17.8125-70.54248,42.375-98.07129,73.6875
			c-27.5083,31.25-49.02539,68.125-64.51025,110.4375s-23.21729,88.0625-23.21729,137.125
			c0,49.125,7.73242,94.8125,23.21729,137.125c15.48486,42.375,37.00195,78.875,64.51025,109.5625
			c27.52881,30.6875,60.21924,54.9375,98.07129,72.6875c37.85205,17.8125,79.14502,26.6875,123.85889,26.6875
			c48.17578,0,91.18945-8.875,129.0415-26.6875c37.85205-17.75,69.67188-42.3125,95.47998-73.625
			s45.58447-68.0625,59.34863-110.4375C5875.60059-787897.375,5882.48291-787942.4375,5882.48291-787990.3125z"/>
		<path class="st0" d="M6937.05664-788016.0625c0,8.5625,0,17.8125,0,27.625s-0.58691,20.25-1.72021,31.25h-667.51172
			c1.1333,43,9.16943,83.5,24.0874,121.5c14.89795,38.0625,35.52441,71.1875,61.93994,99.4375
			c26.35449,28.25,57.32471,50.625,92.88916,67.1875c35.54443,16.5625,73.9834,24.8125,115.27686,24.8125
			c60.76562,0,113.23193-15,157.39941-45.0625c44.14746-30.0625,77.68799-64.75,100.64209-104.0625l87.74805,73.6875
			c-48.17529,65.0625-101.229,111.6875-159.14062,139.875c-57.93164,28.25-120.15479,42.375-186.64893,42.375
			c-59.65234,0-115.01367-11.375-166.02295-34.0625c-51.04932-22.6875-94.91357-54.3125-131.61182-94.8125
			c-36.71826-40.5-65.66406-88.375-86.87744-143.5625c-21.2334-55.25-31.81982-115.375-31.81982-180.4375
			c0-65,10.32324-125.1875,30.94971-180.375c20.64648-55.25,49.30859-103.125,86.02734-143.625
			c36.69824-40.5,79.71191-72.0625,129.02051-94.75c49.30908-22.75,102.646-34.0625,160.01123-34.0625
			c63.05273,0,118.69727,11.3125,166.87256,34.0625c48.17529,22.6875,88.29443,53.375,120.41846,92
			c32.10303,38.6875,56.47412,83.75,73.11279,135.3125C6928.71729-788130.1875,6937.05664-788075,6937.05664-788016.0625z
			 M6818.33887-788056.5625c-3.44092-81-27.81201-148.1875-73.11279-201.5625
			c-45.32129-53.4375-109.83203-80.0625-193.53125-80.0625c-39.00586,0-75.1377,7.625-108.39453,23
			c-33.27734,15.3125-62.52686,36.1875-87.72754,62.5625c-25.2417,26.4375-45.32129,56.5-60.21924,90.1875
			c-14.91846,33.8125-23.521,69.0625-25.80859,105.875H6818.33887z"/>
		<path class="st0" d="M7133.15869-788321.625c-1.15381-36.875-2.87402-70-5.16162-99.4375h111.83545
			c2.2876,23.3125,4.00781,49.125,5.16162,77.3125c1.13379,28.25,1.7207,51.5625,1.7207,69.9375h3.44092
			c22.93408-50.3125,57.32471-91.125,103.21289-122.375c45.86768-31.3125,97.48438-46.9375,154.84912-46.9375
			c14.87793,0,28.37891,0.625,40.42285,1.8125c12.04395,1.25,24.35059,3.6875,36.98145,7.375l-15.48486,119.625
			c-6.88184-2.4375-18.35889-4.875-34.41064-7.3125c-16.07227-2.5-32.12402-3.6875-48.15527-3.6875
			c-30.96973,0-60.80615,6.125-89.46826,18.375c-28.68262,12.25-53.62061,31.5-74.83398,57.8125
			c-21.2334,26.3125-38.43896,60-51.61621,101c-13.19775,41-19.77637,90.3125-19.77637,147.875v440.6875h-116.99707v-671.875
			C7134.87939-788254.75,7134.29248-788284.8125,7133.15869-788321.625z"/>
		<path class="st0" d="M7972.7251-787953.5h-385.36182v-104.9375h385.36182V-787953.5z"/>
		<path class="st0" d="M8495.73145-787730.75h3.4209l395.70508-1132.125h132.46191l-466.22754,1303.3125h-130.74121
			l-464.50781-1303.3125h134.18262L8495.73145-787730.75z"/>
	</g>
</g>
<polygon class="st1" points="112.2551,59.2556 112.2551,111.09068 52.52327,102.86839 52.52327,59.2556 "/>
<polygon class="st1" points="47.5557,59.2556 47.5557,102.18514 2.6745,96.01263 2.6745,59.2614 "/>
<polygon class="st1" points="47.5557,10.28097 47.5557,53.70266 2.66876,53.70266 2.66876,16.46504 "/>
<polygon class="st1" points="112.24931,1.36388 112.24931,53.6969 52.52327,53.6969 52.52327,9.59192 "/>
</svg>
